#tb 0: 1/1000
0,          0,          0,        0,      918, ab7eabb355e5163e7451945018fadebd
0,         33,         33,        0,      918, b9a77cc0c769535808996a6de7b374ff
0,         66,         66,        0,      918, bd773f11d89091b3c9ebc22d8291dd49
0,        100,        100,        0,      918, 278c215d6c188752818f07f4d317c0e0
0,        133,        133,        0,      918, b59856932c675c1ba587644c23cdb002
0,        166,        166,        0,      918, 2bcaef04f89326a56025269a68742043
0,        200,        200,        0,      918, 5abb4a1b96b4bc003cd19a146347c54e
0,        233,        233,        0,      918, 26e36058f451ff80d498ac1c0343489f
0,        266,        266,        0,      918, 57ac43fcc6f1a2c863188aca68d52524
0,        300,        300,        0,      918, 282467118b5b7a986ccd28d16dab3ea7
